<?xml version="1.0" encoding="utf-8"?>
<!-- Generator: Adobe Illustrator 20.0.0, SVG Export Plug-In . SVG Version: 6.00 Build 0)  -->
<svg version="1.1" xmlns="http://www.w3.org/2000/svg" xmlns:xlink="http://www.w3.org/1999/xlink" x="0px" y="0px"
	 viewBox="0 0 1017.6 253.3" style="enable-background:new 0 0 1017.6 253.3;" xml:space="preserve">
<style type="text/css">
	.st0{fill:#313030;}
</style>
<g id="Layer_1">
	<path class="st0" d="M58.7,3.5l67.8,160l68.6-160h53.7L139.1,247.8h-26.7L4.6,3.5H58.7z"/>
	<path class="st0" d="M379.1,197.6H274.6l-23,50.2h-52.8L309.4,3.5H347l107.2,244.3H401L379.1,197.6z M363.4,160l-35.6-86.5
		L290.7,160H363.4z"/>
	<path class="st0" d="M726.8,3.5v244.3h-49.7V3.5H726.8z"/>
	<path class="st0" d="M938.6,197.6H834l-23,50.2h-52.8L868.9,3.5h37.5l107.2,244.3h-53.2L938.6,197.6z M922.9,160l-35.6-86.5
		L850.1,160H922.9z"/>
</g>
<g id="Layer_2">
	<g>
		<path class="st0" d="M574.1,42.4c12.2,1.4,23.6,7.7,34.1,18.8l25.7-31.5c-21.4-17.4-46-26.2-74-26.2c-7.3,0-14.2,0.8-20.8,2.1
			L574.1,42.4z"/>
		<path class="st0" d="M627.3,127.6c-10.2-10.4-25.9-19.1-47.2-26.3c-21.3-7.2-34.6-12.9-40-17.1c-5.4-4.2-8.1-9.5-8.1-15.9
			c0-4.1,1.1-7.8,3.1-11.1l-32.1-33.6c-14.4,12.7-21.6,28.6-21.6,47.5c0,16.5,4.5,29.5,13.6,38.9c9.1,9.4,21.6,16.8,37.5,22.1
			c16,5.3,26.7,9.1,32.1,11.3c5.4,2.2,11.3,5.3,17.7,9.2s9.6,10.9,9.6,21c0,9.7-3.6,17.6-10.8,23.9c-7.2,6.2-16.3,9.4-27.4,9.4
			c-24.2,0-42-10.5-53.6-31.5L468.6,204c11.3,15.8,24,27.2,37.9,34.3c14,7.1,30.4,10.6,49.2,10.6c25.7,0,46.5-7.2,62.6-21.6
			c16.1-14.4,24.2-33,24.2-55.9C642.6,152.6,637.5,138,627.3,127.6z"/>
	</g>
</g>
</svg>
